<?xml version="1.0" encoding="UTF-8" standalone="no"?><!DOCTYPE svg PUBLIC "-//W3C//DTD SVG 1.1//EN" "http://www.w3.org/Graphics/SVG/1.1/DTD/svg11.dtd"><svg width="100%" height="100%" viewBox="0 0 316 93" version="1.1" xmlns="http://www.w3.org/2000/svg" xmlns:xlink="http://www.w3.org/1999/xlink" xml:space="preserve" xmlns:serif="http://www.serif.com/" style="fill-rule:evenodd;clip-rule:evenodd;stroke-linejoin:round;stroke-miterlimit:2;"> <g id="Logo" transform="matrix(0.824049,0,0,0.824049,-402.536,-424.053)"> <g transform="matrix(1,0,0,1,8.49464,0.143711)"> <g id="New--Learning" serif:id="New Learning" transform="matrix(1.62286,0,0,1.62286,606.232,613.076)"> <path d="M9.015,-5.126L20.964,-5.126L20.964,0L2.151,0L2.151,-27.644L9.015,-27.644L9.015,-5.126Z" style="fill:rgb(33,33,33);fill-rule:nonzero;"/> <path d="M33.793,0.38C30.546,0.38 27.919,-0.56 25.912,-2.44C23.904,-4.319 22.9,-6.765 22.9,-9.778L22.9,-10.31C22.9,-12.411 23.301,-14.265 24.103,-15.873C24.904,-17.48 26.075,-18.724 27.613,-19.603C29.151,-20.483 30.977,-20.923 33.089,-20.923C36.061,-20.923 38.408,-20.027 40.129,-18.236C41.85,-16.445 42.71,-13.949 42.71,-10.746L42.71,-8.259L29.608,-8.259C29.842,-7.107 30.357,-6.202 31.153,-5.544C31.948,-4.886 32.978,-4.557 34.242,-4.557C36.328,-4.557 37.958,-5.266 39.131,-6.683L42.143,-3.228C41.322,-2.126 40.158,-1.25 38.652,-0.598C37.146,0.054 35.527,0.38 33.793,0.38ZM33.049,-15.986C31.12,-15.986 29.973,-14.746 29.608,-12.265L36.257,-12.265L36.257,-12.759C36.283,-13.784 36.015,-14.578 35.455,-15.142C34.894,-15.705 34.092,-15.986 33.049,-15.986Z" style="fill:rgb(33,33,33);fill-rule:nonzero;"/> <path d="M57.279,0C57.045,-0.418 56.836,-1.032 56.653,-1.842C55.441,-0.361 53.746,0.38 51.569,0.38C49.574,0.38 47.879,-0.206 46.484,-1.377C45.089,-2.547 44.392,-4.019 44.392,-5.791C44.392,-8.019 45.239,-9.702 46.934,-10.841C48.629,-11.98 51.093,-12.55 54.326,-12.55L56.36,-12.55L56.36,-13.632C56.36,-15.518 55.519,-16.461 53.837,-16.461C52.273,-16.461 51.491,-15.714 51.491,-14.221L44.9,-14.221C44.9,-16.208 45.771,-17.822 47.511,-19.062C49.252,-20.303 51.471,-20.923 54.17,-20.923C56.869,-20.923 59,-20.284 60.565,-19.005C62.129,-17.727 62.931,-15.974 62.97,-13.746L62.97,-4.652C62.996,-2.766 63.296,-1.323 63.87,-0.323L63.87,0L57.279,0ZM53.153,-4.177C53.974,-4.177 54.655,-4.348 55.196,-4.69C55.738,-5.031 56.125,-5.417 56.36,-5.848L56.36,-9.132L54.444,-9.132C52.149,-9.132 51.002,-8.132 51.002,-6.133C51.002,-5.55 51.204,-5.079 51.608,-4.718C52.012,-4.357 52.527,-4.177 53.153,-4.177Z" style="fill:rgb(33,33,33);fill-rule:nonzero;"/> <path d="M79.416,-14.752L77.246,-14.904C75.173,-14.904 73.843,-14.271 73.256,-13.006L73.256,0L66.666,0L66.666,-20.543L72.846,-20.543L73.061,-17.904C74.169,-19.917 75.714,-20.923 77.696,-20.923C78.4,-20.923 79.012,-20.847 79.534,-20.695L79.416,-14.752Z" style="fill:rgb(33,33,33);fill-rule:nonzero;"/> <path d="M87.845,-20.543L88.06,-18.132C89.52,-19.993 91.535,-20.923 94.103,-20.923C96.306,-20.923 97.952,-20.284 99.041,-19.005C100.129,-17.727 100.693,-15.803 100.732,-13.233L100.732,0L94.122,0L94.122,-12.968C94.122,-14.006 93.907,-14.768 93.477,-15.255C93.047,-15.743 92.265,-15.986 91.13,-15.986C89.84,-15.986 88.882,-15.493 88.256,-14.506L88.256,0L81.665,0L81.665,-20.543L87.845,-20.543Z" style="fill:rgb(33,33,33);fill-rule:nonzero;"/> <path d="M111.332,0L104.722,0L104.722,-20.543L111.332,-20.543L111.332,0ZM104.331,-25.84C104.331,-26.752 104.67,-27.498 105.348,-28.081C106.026,-28.663 106.906,-28.954 107.988,-28.954C109.07,-28.954 109.95,-28.663 110.628,-28.081C111.306,-27.498 111.645,-26.752 111.645,-25.84C111.645,-24.929 111.306,-24.182 110.628,-23.6C109.95,-23.018 109.07,-22.727 107.988,-22.727C106.906,-22.727 106.026,-23.018 105.348,-23.6C104.67,-24.182 104.331,-24.929 104.331,-25.84Z" style="fill:rgb(33,33,33);fill-rule:nonzero;"/> <path d="M121.442,-20.543L121.657,-18.132C123.117,-19.993 125.132,-20.923 127.7,-20.923C129.903,-20.923 131.549,-20.284 132.638,-19.005C133.726,-17.727 134.29,-15.803 134.329,-13.233L134.329,0L127.72,0L127.72,-12.968C127.72,-14.006 127.504,-14.768 127.074,-15.255C126.644,-15.743 125.862,-15.986 124.727,-15.986C123.437,-15.986 122.479,-15.493 121.853,-14.506L121.853,0L115.262,0L115.262,-20.543L121.442,-20.543Z" style="fill:rgb(33,33,33);fill-rule:nonzero;"/> <path d="M137.204,-10.423C137.204,-12.499 137.556,-14.335 138.26,-15.93C138.964,-17.524 139.975,-18.755 141.291,-19.622C142.608,-20.489 144.14,-20.923 145.887,-20.923C148.09,-20.923 149.811,-20.201 151.05,-18.758L151.284,-20.543L157.268,-20.543L157.268,-0.778C157.268,1.032 156.835,2.604 155.968,3.94C155.101,5.275 153.846,6.3 152.203,7.015C150.561,7.731 148.657,8.088 146.493,8.088C144.942,8.088 143.439,7.803 141.986,7.234C140.532,6.664 139.42,5.924 138.651,5.012L141.409,1.253C142.634,2.658 144.251,3.361 146.258,3.361C149.179,3.361 150.639,1.905 150.639,-1.006L150.639,-1.652C149.374,-0.297 147.777,0.38 145.848,0.38C143.266,0.38 141.18,-0.579 139.59,-2.497C137.999,-4.414 137.204,-6.981 137.204,-10.196L137.204,-10.423ZM143.814,-10.025C143.814,-8.341 144.14,-7.009 144.792,-6.028C145.444,-5.047 146.356,-4.557 147.53,-4.557C148.951,-4.557 149.987,-5.019 150.639,-5.943L150.639,-14.581C150,-15.518 148.977,-15.986 147.569,-15.986C146.395,-15.986 145.476,-15.477 144.811,-14.458C144.146,-13.439 143.814,-11.961 143.814,-10.025Z" style="fill:rgb(33,33,33);fill-rule:nonzero;"/> </g> <g id="New--Learning1" serif:id="New Learning" transform="matrix(1.62286,0,0,1.62286,604.36,560.625)"> <path d="M25.188,0L21.414,0L7.079,-21.303L7.079,0L3.305,0L3.305,-27.644L7.079,-27.644L21.453,-6.246L21.453,-27.644L25.188,-27.644L25.188,0Z" style="fill:rgb(33,33,33);fill-rule:nonzero;"/> <path d="M40.07,0.38C37.202,0.38 34.868,-0.535 33.069,-2.364C31.27,-4.193 30.37,-6.639 30.37,-9.702L30.37,-10.348C30.37,-12.385 30.771,-14.205 31.573,-15.806C32.375,-17.407 33.496,-18.66 34.937,-19.565C36.377,-20.47 37.938,-20.923 39.62,-20.923C42.371,-20.923 44.509,-20.043 46.035,-18.284C47.56,-16.524 48.323,-14.006 48.323,-10.727L48.323,-9.265L33.988,-9.265C34.04,-7.24 34.65,-5.604 35.817,-4.357C36.983,-3.111 38.466,-2.487 40.266,-2.487C41.543,-2.487 42.625,-2.74 43.512,-3.247C44.398,-3.753 45.174,-4.424 45.839,-5.259L48.049,-3.588C46.276,-0.943 43.616,0.38 40.07,0.38ZM39.62,-18.037C38.16,-18.037 36.935,-17.521 35.944,-16.49C34.953,-15.458 34.34,-14.012 34.105,-12.151L44.705,-12.151L44.705,-12.417C44.6,-14.202 44.105,-15.585 43.219,-16.566C42.332,-17.547 41.133,-18.037 39.62,-18.037Z" style="fill:rgb(33,33,33);fill-rule:nonzero;"/> <path d="M71.242,-4.842L75.31,-20.543L78.928,-20.543L72.767,0L69.834,0L64.691,-15.569L59.685,0L56.751,0L50.611,-20.543L54.209,-20.543L58.374,-5.164L63.302,-20.543L66.216,-20.543L71.242,-4.842Z" style="fill:rgb(33,33,33);fill-rule:nonzero;"/> </g> </g> <g id="Shape-now" serif:id="Shape now" transform="matrix(1,0,0,1,0.385997,-2.83054)"> <g transform="matrix(1.21352,0,0,1.21352,-105.279,459.118)"> <path d="M561.138,72.338L561.136,72.33C560.136,68.599 562.354,64.757 566.087,63.757C569.819,62.756 573.662,64.974 574.662,68.706L574.664,68.713L574.664,68.713L574.676,68.762C574.694,68.83 574.711,68.898 574.726,68.967C580.296,92.073 566.426,115.57 543.334,121.758C520.298,127.93 496.596,114.595 489.801,91.898C489.754,91.759 489.711,91.617 489.673,91.474C488.672,87.739 490.892,83.895 494.626,82.894C498.361,81.894 502.205,84.113 503.206,87.848C503.213,87.875 503.22,87.902 503.227,87.929C507.882,103.372 524.023,112.438 539.711,108.235C555.423,104.025 564.873,88.061 561.137,72.338L561.138,72.338Z" style="fill:rgb(255,183,3);"/> </g> <g transform="matrix(1.23388,0,0,1.23388,-94.8463,465.105)"> <path d="M514.713,49.493C527.74,49.493 538.317,60.07 538.317,73.097C538.317,86.124 527.74,96.701 514.713,96.701C501.686,96.701 491.109,86.124 491.109,73.097C491.109,60.07 501.686,49.493 514.713,49.493ZM514.713,63.262C520.141,63.262 524.548,67.669 524.548,73.097C524.548,78.525 520.141,82.932 514.713,82.932C509.285,82.932 504.878,78.525 504.878,73.097C504.878,67.669 509.285,63.262 514.713,63.262Z" style="fill:rgb(184,0,28);"/> </g> </g> </g></svg>